<svg width="64" height="64" viewBox="0 0 64 64" fill="none" xmlns="http://www.w3.org/2000/svg">
<circle cx="32" cy="32" r="32" fill="#F1F3F5"/>
<g clip-path="url(#clip0)">
<path d="M19.2 30.9841C18.5671 30.9841 17.9484 31.1718 17.4222 31.5234C16.8959 31.875 16.4858 32.3748 16.2436 32.9595C16.0014 33.5442 15.938 34.1876 16.0615 34.8084C16.185 35.4291 16.4897 35.9993 16.9373 36.4468C17.3848 36.8944 17.955 37.1991 18.5757 37.3226C19.1965 37.4461 19.8399 37.3827 20.4246 37.1405C21.0093 36.8983 21.5091 36.4881 21.8607 35.9619C22.2123 35.4357 22.4 34.817 22.4 34.1841C22.3992 33.3356 22.0618 32.5222 21.4619 31.9222C20.8619 31.3223 20.0485 30.9849 19.2 30.9841ZM23.6 34.9841H26V33.3841H23.6V34.9841ZM38.32 29.6441L39.28 30.9241L41.68 29.1241L40.72 27.8441L38.32 29.6441ZM44.8 22.1841C44.1671 22.1841 43.5484 22.3718 43.0222 22.7234C42.4959 23.075 42.0858 23.5748 41.8436 24.1595C41.6014 24.7442 41.538 25.3876 41.6615 26.0084C41.785 26.6291 42.0897 27.1993 42.5373 27.6468C42.9848 28.0944 43.555 28.3991 44.1757 28.5226C44.7965 28.6461 45.4399 28.5827 46.0246 28.3405C46.6093 28.0983 47.1091 27.6881 47.4607 27.1619C47.8123 26.6357 48 26.017 48 25.3841C47.9992 24.5356 47.6618 23.7222 47.0619 23.1222C46.4619 22.5223 45.6484 22.1849 44.8 22.1841Z" fill="#19C1CE"/>
<path d="M44.8001 38.184C44.1082 38.1874 43.4361 38.4155 42.8851 38.834L38.0851 35.954C38.2871 35.3837 38.3935 34.784 38.4001 34.179C38.4005 33.4435 38.2559 32.7151 37.9746 32.0355C37.6933 31.3559 37.2809 30.7384 36.7608 30.2183C36.2407 29.6982 35.6232 29.2857 34.9436 29.0045C34.264 28.7232 33.5356 28.5786 32.8001 28.579C32.3893 28.581 31.98 28.6297 31.5801 28.724L29.5401 24.354C30.0367 23.8146 30.3325 23.1207 30.3777 22.3889C30.4229 21.6571 30.2148 20.932 29.7884 20.3356C29.362 19.7392 28.7433 19.3077 28.0362 19.1137C27.3291 18.9198 26.5769 18.9751 25.9058 19.2705C25.2347 19.5659 24.6858 20.0833 24.3513 20.7357C24.0168 21.3881 23.9171 22.1358 24.069 22.8531C24.2208 23.5704 24.615 24.2136 25.1852 24.6745C25.7554 25.1354 26.4669 25.3859 27.2001 25.384C27.2551 25.384 27.3051 25.369 27.3601 25.369L29.4101 29.759C28.0751 30.779 27.2001 32.374 27.2001 34.184C27.1972 35.3052 27.5318 36.4014 28.1604 37.3299C28.789 38.2584 29.6825 38.9761 30.7246 39.3899C31.7667 39.8036 32.9093 39.8941 34.0035 39.6496C35.0978 39.4051 36.0932 38.8369 36.8601 38.019L41.6501 40.894C41.5513 41.5391 41.6525 42.1989 41.94 42.7847C42.2276 43.3705 42.6877 43.8542 43.2585 44.1706C43.8292 44.4869 44.4832 44.6209 45.1324 44.5543C45.7816 44.4878 46.3948 44.224 46.8895 43.7984C47.3842 43.3728 47.7366 42.8058 47.8994 42.1739C48.0621 41.5419 48.0273 40.8752 47.7997 40.2636C47.5721 39.652 47.1626 39.1248 46.6263 38.753C46.09 38.3812 45.4527 38.1826 44.8001 38.184ZM32.8001 36.584C32.3254 36.584 31.8614 36.4432 31.4667 36.1795C31.072 35.9158 30.7644 35.541 30.5828 35.1024C30.4011 34.6639 30.3536 34.1813 30.4462 33.7158C30.5388 33.2502 30.7674 32.8226 31.103 32.4869C31.4387 32.1513 31.8663 31.9227 32.3319 31.8301C32.7974 31.7375 33.28 31.785 33.7185 31.9667C34.1571 32.1483 34.5319 32.4559 34.7956 32.8506C35.0593 33.2453 35.2001 33.7093 35.2001 34.184C35.2001 34.8205 34.9472 35.431 34.4971 35.881C34.0471 36.3311 33.4366 36.584 32.8001 36.584Z" fill="#19C1CE"/>
</g>
<defs>
<clipPath id="clip0">
<rect width="32" height="32" fill="white" transform="translate(16 16)"/>
</clipPath>
</defs>
</svg>
