<svg width="64" height="64" viewBox="0 0 64 64" fill="none" xmlns="http://www.w3.org/2000/svg">
<circle cx="32" cy="32" r="32" fill="#F1F3F5"/>
<path d="M48 41V43C48 43.2652 47.8946 43.5196 47.7071 43.7071C47.5196 43.8946 47.2652 44 47 44H18C17.4696 44 16.9609 43.7893 16.5858 43.4142C16.2107 43.0391 16 42.5304 16 42V21C16 20.7348 16.1054 20.4804 16.2929 20.2929C16.4804 20.1054 16.7348 20 17 20H19C19.2652 20 19.5196 20.1054 19.7071 20.2929C19.8946 20.4804 20 20.7348 20 21V40H47C47.2652 40 47.5196 40.1054 47.7071 40.2929C47.8946 40.4804 48 40.7348 48 41Z" fill="#19C1CE"/>
<path d="M45.9999 23V30.3781C45.9999 31.7144 44.3843 32.3837 43.4374 31.4406L41.4124 29.4156L35.4124 35.4156C35.0374 35.7906 34.5287 36.0013 33.9984 36.0013C33.468 36.0013 32.9594 35.7906 32.5843 35.4156L27.9999 30.8281L25.1212 33.7075C25.0283 33.8004 24.9181 33.8741 24.7967 33.9243C24.6754 33.9746 24.5453 34.0005 24.414 34.0005C24.2827 34.0005 24.1526 33.9746 24.0313 33.9243C23.9099 33.8741 23.7997 33.8004 23.7068 33.7075L22.2931 32.2938C22.2002 32.2009 22.1265 32.0906 22.0762 31.9693C22.026 31.848 22.0001 31.7179 22.0001 31.5866C22.0001 31.4552 22.026 31.3252 22.0762 31.2038C22.1265 31.0825 22.2002 30.9722 22.2931 30.8794L26.5862 26.5863C26.9613 26.2113 27.4699 26.0006 28.0003 26.0006C28.5306 26.0006 29.0393 26.2113 29.4143 26.5863L33.9999 31.1719L38.5856 26.5856L36.5624 24.5625C35.6174 23.6175 36.2868 22 37.6249 22H44.9999C45.2652 22 45.5195 22.1054 45.707 22.2929C45.8946 22.4804 45.9999 22.7348 45.9999 23Z" fill="#19C1CE"/>
</svg>
