<svg width="40" height="40" viewBox="0 0 40 40" fill="none" xmlns="http://www.w3.org/2000/svg">
<g clip-path="url(#clip0)">
<path d="M34.1468 25.5132C34.3424 21.9484 33.1035 16.1149 30.1041 11.3186C30.0389 11.189 29.8759 11.2538 29.9085 11.3834C30.1041 12.0964 30.1693 13.4251 28.9956 13.3603C26.9417 13.2306 29.0608 8.82319 24.5291 5.80926C24.4313 5.74444 24.3335 5.84167 24.3661 5.93889C24.6922 6.52223 24.8552 8.36948 24.1379 8.98523C23.5511 9.47134 22.5078 9.34171 21.4972 7.68891C19.8018 4.93425 20.4539 2.01754 21.595 0.170298C21.6928 0.0406664 21.5624 -0.0241492 21.4645 0.00825861C15.2375 2.04995 13.9987 9.34171 12.662 11.9992C12.4338 12.4529 12.2382 12.6797 11.8795 12.6473C10.7385 12.5825 11.5535 10.1519 11.9447 9.34171C12.0099 9.21208 11.8795 9.14727 11.7817 9.24449C8.58672 12.5501 5.68513 18.2215 5.1309 23.4715C5.1635 23.3419 5.06569 23.8928 5.03309 24.3141C5.03309 24.4762 5.00049 24.6382 5.00049 24.8002V25.3836C4.93529 33.3883 11.3905 39.9023 19.4432 39.9995C27.4959 40.0643 34.049 33.6476 34.1468 25.6428V25.5132ZM19.5084 32.2216C15.7918 32.1892 12.7924 29.1753 12.825 25.4484C12.8576 21.7215 15.8896 18.7724 19.6388 18.8048C23.3881 18.8372 26.3549 21.8511 26.3223 25.578C26.2897 29.3049 23.2577 32.254 19.5084 32.2216Z" fill="#F04E23"/>
</g>
<defs>
<clipPath id="clip0">
<rect width="40" height="40" fill="white"/>
</clipPath>
</defs>
</svg>
