<svg width="25" height="25" viewBox="0 0 25 25" fill="none" xmlns="http://www.w3.org/2000/svg">
<path d="M12.9054 6.6133C9.49938 6.6133 6.75208 9.3606 6.75208 12.7666C6.75208 16.1726 9.49938 18.9199 12.9054 18.9199C16.3114 18.9199 19.0587 16.1726 19.0587 12.7666C19.0587 9.3606 16.3114 6.6133 12.9054 6.6133ZM12.9054 16.767C10.7043 16.767 8.90493 14.973 8.90493 12.7666C8.90493 10.5602 10.699 8.76616 12.9054 8.76616C15.1118 8.76616 16.9058 10.5602 16.9058 12.7666C16.9058 14.973 15.1064 16.767 12.9054 16.767ZM20.7456 6.3616C20.7456 7.15955 20.103 7.79684 19.3104 7.79684C18.5124 7.79684 17.8751 7.1542 17.8751 6.3616C17.8751 5.56901 18.5178 4.92637 19.3104 4.92637C20.103 4.92637 20.7456 5.56901 20.7456 6.3616ZM24.821 7.81826C24.73 5.89569 24.2909 4.19269 22.8824 2.78958C21.4793 1.38648 19.7763 0.947345 17.8537 0.850948C15.8722 0.738486 9.93316 0.738486 7.95168 0.850948C6.03447 0.941989 4.33147 1.38113 2.92301 2.78423C1.51455 4.18733 1.08077 5.89033 0.984371 7.8129C0.871909 9.79438 0.871909 15.7335 0.984371 17.7149C1.07541 19.6375 1.51455 21.3405 2.92301 22.7436C4.33147 24.1467 6.02911 24.5859 7.95168 24.6823C9.93316 24.7947 15.8722 24.7947 17.8537 24.6823C19.7763 24.5912 21.4793 24.1521 22.8824 22.7436C24.2855 21.3405 24.7246 19.6375 24.821 17.7149C24.9335 15.7335 24.9335 9.79974 24.821 7.81826ZM22.2612 19.841C21.8435 20.8907 21.0348 21.6993 19.9798 22.1224C18.4 22.749 14.6512 22.6044 12.9054 22.6044C11.1595 22.6044 7.40544 22.7436 5.83096 22.1224C4.78131 21.7047 3.97266 20.896 3.54958 19.841C2.92301 18.2612 3.0676 14.5124 3.0676 12.7666C3.0676 11.0208 2.92836 7.26666 3.54958 5.69218C3.9673 4.64254 4.77596 3.83388 5.83096 3.41081C7.41079 2.78423 11.1595 2.92882 12.9054 2.92882C14.6512 2.92882 18.4053 2.78958 19.9798 3.41081C21.0294 3.82852 21.8381 4.63718 22.2612 5.69218C22.8878 7.27201 22.7432 11.0208 22.7432 12.7666C22.7432 14.5124 22.8878 18.2665 22.2612 19.841Z" fill="#212429"/>
</svg>
