<svg width="40" height="40" viewBox="0 0 40 40" fill="none" xmlns="http://www.w3.org/2000/svg">
<path d="M40 2.91667V37.0833C40 37.8569 39.6927 38.5987 39.1457 39.1457C38.5987 39.6927 37.8569 40 37.0833 40H2.91667C2.14312 40 1.40126 39.6927 0.854276 39.1457C0.307295 38.5987 0 37.8569 0 37.0833V2.91667C0 2.14312 0.307295 1.40125 0.854276 0.854272C1.40126 0.307291 2.14312 0 2.91667 0L37.0833 0C37.8569 0 38.5987 0.307291 39.1457 0.854272C39.6927 1.40125 40 2.14312 40 2.91667ZM11.6667 15H5.83333V34.1667H11.6667V15ZM12.1667 8.75C12.1749 8.07432 11.9825 7.41138 11.6139 6.84502C11.2454 6.27865 10.7171 5.83429 10.096 5.56813C9.47492 5.30197 8.78885 5.22596 8.12454 5.34971C7.46024 5.47346 6.84755 5.79141 6.36395 6.26336C5.88034 6.73531 5.54754 7.34007 5.40763 8.00116C5.26771 8.66224 5.32697 9.34997 5.5779 9.97738C5.82884 10.6048 6.26019 11.1437 6.8174 11.526C7.37461 11.9082 8.03265 12.1167 8.70833 12.125H8.75C9.18777 12.1361 9.62344 12.0608 10.0321 11.9034C10.4408 11.7461 10.8144 11.5097 11.1317 11.2079C11.449 10.9061 11.7037 10.5447 11.8813 10.1444C12.0589 9.74414 12.1559 9.31278 12.1667 8.875V8.75ZM34.1667 22.6833C34.1667 16.85 30.3083 14.5833 26.9583 14.5833C23.6083 14.5833 21.125 16.5333 20.575 17.7083H20.5V15H15V34.1667H20.8333V24.1667C20.8333 21.0917 22.925 19.725 24.9583 19.725C26.625 19.725 28.3333 21.0083 28.3333 24.0917V34.1667H34.1667V22.6833Z" fill="#0A66C2"/>
</svg>
