<svg width="22" height="22" viewBox="0 0 22 22" fill="none" xmlns="http://www.w3.org/2000/svg">
<path d="M5.10861 21.6664H0.685755V7.4235H5.10861V21.6664ZM2.8948 5.48064C1.48052 5.48064 0.333374 4.30921 0.333374 2.89492C0.333374 2.21559 0.603238 1.56408 1.0836 1.08372C1.56396 0.60336 2.21547 0.333496 2.8948 0.333496C3.57414 0.333496 4.22564 0.60336 4.70601 1.08372C5.18637 1.56408 5.45623 2.21559 5.45623 2.89492C5.45623 4.30921 4.30861 5.48064 2.8948 5.48064ZM21.6619 21.6664H17.2486V14.733C17.2486 13.0806 17.2153 10.9616 14.9491 10.9616C12.6496 10.9616 12.2972 12.7568 12.2972 14.614V21.6664H7.87909V7.4235H12.121V9.36635H12.1829C12.7734 8.24731 14.2158 7.06635 16.3677 7.06635C20.8438 7.06635 21.6667 10.014 21.6667 13.8425V21.6664H21.6619Z" fill="#212429"/>
</svg>
