<svg width="64" height="64" viewBox="0 0 64 64" fill="none" xmlns="http://www.w3.org/2000/svg">
<circle cx="32" cy="32" r="32" fill="#F1F3F5"/>
<path d="M48 30.7203C48 29.4023 47.2806 28.2638 46.2222 27.6458V19.1188C46.2222 18.6307 45.8344 17.3333 44.4444 17.3333C44.0489 17.3333 43.6561 17.466 43.3344 17.7248L38.6106 21.5195C36.2378 23.4238 33.2589 24.473 30.2222 24.473H19.5556C17.5917 24.473 16 26.0711 16 28.0429V33.3978C16 35.3696 17.5917 36.9677 19.5556 36.9677H21.4278C21.3506 37.5522 21.3067 38.1468 21.3067 38.7526C21.3067 40.971 21.8211 43.0672 22.7267 44.9408C23.015 45.5371 23.6444 45.8924 24.3044 45.8924H28.4311C29.8783 45.8924 30.7472 44.2279 29.87 43.0722C28.9589 41.8718 28.4172 40.3747 28.4172 38.7526C28.4172 38.1329 28.5072 37.5372 28.6622 36.9677H30.2222C33.2589 36.9677 36.2378 38.0169 38.61 39.9212L43.3339 43.7159C43.649 43.969 44.0404 44.1071 44.4439 44.1074C45.8283 44.1074 46.2217 42.8368 46.2217 42.3225V33.7955C47.2806 33.1769 48 32.0384 48 30.7203ZM42.6667 38.6087L40.8306 37.1339C37.8306 34.7242 34.0622 33.3978 30.2222 33.3978V28.0429C34.0622 28.0429 37.8306 26.7165 40.8306 24.3068L42.6667 22.832V38.6087Z" fill="#19C1CE"/>
</svg>
