<svg width="64" height="64" viewBox="0 0 64 64" fill="none" xmlns="http://www.w3.org/2000/svg">
<circle cx="32" cy="32" r="32" fill="#F1F3F5"/>
<g clip-path="url(#clip0)">
<path d="M47.0467 33.9409H33.0885L42.3844 43.2368C42.7397 43.5921 43.3244 43.6209 43.6897 43.2768C45.9661 41.1321 47.532 38.2409 47.9914 34.9909C48.0702 34.4345 47.6085 33.9409 47.0467 33.9409ZM46.1155 30.1292C45.6308 23.1021 40.0155 17.4868 32.9885 17.0021C32.452 16.9651 32.0002 17.4174 32.0002 17.9551V31.1174H45.1632C45.7008 31.1174 46.1526 30.6657 46.1155 30.1292ZM29.1767 33.9409V19.9827C29.1767 19.421 28.6832 18.9592 28.1273 19.038C21.1173 20.0286 15.7591 26.1527 16.0085 33.4921C16.265 41.0298 22.755 47.2109 30.2961 47.1162C33.2608 47.0792 36.0002 46.1239 38.2526 44.5262C38.7173 44.1968 38.7479 43.5127 38.345 43.1098L29.1767 33.9409Z" fill="#19C1CE"/>
</g>
<defs>
<clipPath id="clip0">
<rect width="32" height="32" fill="white" transform="translate(16 16)"/>
</clipPath>
</defs>
</svg>
