<svg width="40" height="40" viewBox="0 0 40 40" fill="none" xmlns="http://www.w3.org/2000/svg">
<g clip-path="url(#clip0)">
<path d="M16.6456 8.92382C17.9356 7.56355 19.7316 6.71994 21.7179 6.71994C24.3584 6.71994 26.6621 8.20996 27.8889 10.4219C28.955 9.93985 30.135 9.67171 31.3766 9.67171C36.139 9.67171 40 13.613 40 18.4746C40 23.3367 36.139 27.278 31.3766 27.278C30.7954 27.278 30.2274 27.2192 29.6781 27.1067C28.5977 29.0569 26.539 30.3745 24.1761 30.3745C23.1869 30.3745 22.2513 30.1433 21.4182 29.7321C20.3231 32.3391 17.7715 34.167 14.7977 34.167C11.7009 34.167 9.06154 32.184 8.04843 29.4029C7.6057 29.498 7.14701 29.5476 6.67635 29.5476C2.98917 29.5476 0 26.4915 0 22.7209C0 20.1941 1.34302 17.9879 3.33846 16.8075C2.92764 15.8509 2.69915 14.7951 2.69915 13.6851C2.69915 9.3488 6.17778 5.83366 10.4684 5.83366C12.9875 5.83366 15.2262 7.04574 16.6456 8.92382Z" fill="#00A1E0"/>
<path d="M5.79359 20.5262C5.76851 20.5925 5.8027 20.6063 5.81068 20.6179C5.88589 20.6732 5.96225 20.713 6.03917 20.7574C6.44715 20.9765 6.83233 21.0405 7.23518 21.0405C8.05569 21.0405 8.56509 20.5988 8.56509 19.8878V19.874C8.56509 19.2166 7.99017 18.9779 7.45056 18.8055L7.38048 18.7824C6.97364 18.6487 6.62265 18.5333 6.62265 18.2623V18.2479C6.62265 18.0161 6.82777 17.8454 7.14572 17.8454C7.499 17.8454 7.91837 17.9642 8.18846 18.1153C8.18846 18.1153 8.26766 18.1672 8.29672 18.0893C8.31267 18.0478 8.44942 17.6753 8.46367 17.6349C8.47905 17.5911 8.4517 17.5588 8.42378 17.5415C8.11552 17.3518 7.68931 17.2221 7.24829 17.2221L7.16623 17.2227C6.41524 17.2227 5.89102 17.6817 5.89102 18.3396V18.3534C5.89102 19.0471 6.46937 19.272 7.01125 19.4288L7.09843 19.4559C7.4933 19.5788 7.83347 19.6843 7.83347 19.9657V19.9795C7.83347 20.2367 7.61239 20.4281 7.25569 20.4281C7.11723 20.4281 6.67564 20.4253 6.19871 20.1202C6.14116 20.0862 6.10755 20.0614 6.0631 20.0343C6.03974 20.0193 5.98105 19.9934 5.95541 20.0718L5.79359 20.5262Z" fill="white"/>
<path d="M17.8055 20.5262C17.7805 20.5925 17.8147 20.6063 17.8226 20.6179C17.8979 20.6732 17.9742 20.713 18.0511 20.7574C18.4591 20.9765 18.8443 21.0405 19.2471 21.0405C20.0677 21.0405 20.5771 20.5988 20.5771 19.8878V19.874C20.5771 19.2166 20.0021 18.9779 19.4625 18.8055L19.3924 18.7824C18.9856 18.6487 18.6346 18.5333 18.6346 18.2623V18.2479C18.6346 18.0161 18.8397 17.8454 19.1577 17.8454C19.511 17.8454 19.9303 17.9642 20.2004 18.1153C20.2004 18.1153 20.2796 18.1672 20.3087 18.0893C20.3246 18.0478 20.4614 17.6753 20.4756 17.6349C20.491 17.5911 20.4637 17.5588 20.4358 17.5415C20.1275 17.3518 19.7013 17.2221 19.2603 17.2221L19.1782 17.2227C18.4272 17.2227 17.903 17.6817 17.903 18.3396V18.3534C17.903 19.0471 18.4813 19.272 19.0232 19.4288L19.1104 19.4559C19.5053 19.5788 19.846 19.6843 19.846 19.9657V19.9795C19.846 20.2367 19.6244 20.4281 19.2677 20.4281C19.1292 20.4281 18.6876 20.4253 18.2107 20.1202C18.1531 20.0862 18.1189 20.0626 18.0756 20.0343C18.0608 20.0245 17.9913 19.9974 17.9674 20.0718L17.8055 20.5262Z" fill="white"/>
<path d="M26.0058 19.1337C26.0058 19.5356 25.9318 19.8522 25.7859 20.0759C25.6417 20.2973 25.4235 20.4052 25.1192 20.4052C24.8144 20.4052 24.5973 20.2979 24.4554 20.0759C24.3118 19.8527 24.2389 19.5356 24.2389 19.1337C24.2389 18.7324 24.3118 18.4164 24.4554 18.1949C24.5973 17.9758 24.8144 17.8691 25.1192 17.8691C25.4235 17.8691 25.6417 17.9758 25.7865 18.1949C25.9318 18.4164 26.0058 18.7324 26.0058 19.1337ZM26.6907 18.3887C26.6235 18.1586 26.5187 17.9556 26.3791 17.7867C26.2395 17.6171 26.0628 17.4811 25.8531 17.3819C25.644 17.2833 25.3967 17.2331 25.1192 17.2331C24.8412 17.2331 24.5939 17.2833 24.3848 17.3819C24.1751 17.4811 23.9984 17.6171 23.8583 17.7867C23.7192 17.9562 23.6144 18.1592 23.5466 18.3887C23.4799 18.6176 23.4463 18.8679 23.4463 19.1337C23.4463 19.3995 23.4799 19.6503 23.5466 19.8787C23.6144 20.1082 23.7187 20.3112 23.8588 20.4807C23.9984 20.6502 24.1756 20.7857 24.3848 20.882C24.5944 20.9783 24.8412 21.0273 25.1192 21.0273C25.3967 21.0273 25.6434 20.9783 25.8531 20.882C26.0622 20.7857 26.2395 20.6502 26.3791 20.4807C26.5187 20.3117 26.6235 20.1088 26.6907 19.8787C26.758 19.6498 26.7916 19.3989 26.7916 19.1337C26.7916 18.8684 26.758 18.6176 26.6907 18.3887Z" fill="white"/>
<path d="M32.315 20.2982C32.2922 20.2307 32.2279 20.2561 32.2279 20.2561C32.1281 20.2947 32.0222 20.3305 31.9093 20.3483C31.7948 20.3662 31.6689 20.3754 31.5338 20.3754C31.2022 20.3754 30.939 20.2757 30.7504 20.0785C30.5612 19.8813 30.4552 19.5624 30.4563 19.1311C30.4575 18.7384 30.5509 18.4432 30.719 18.2183C30.886 17.9945 31.1401 17.8798 31.4791 17.8798C31.7618 17.8798 31.9771 17.9127 32.2028 17.9847C32.2028 17.9847 32.2569 18.0084 32.2826 17.9369C32.3424 17.7685 32.3868 17.648 32.4506 17.4629C32.4689 17.4104 32.4244 17.3879 32.4085 17.3816C32.3196 17.3464 32.1099 17.2893 31.9515 17.2651C31.8034 17.242 31.6301 17.2299 31.4375 17.2299C31.1498 17.2299 30.8934 17.2795 30.674 17.3787C30.4552 17.4773 30.2695 17.6134 30.1224 17.7829C29.9754 17.9524 29.8638 18.1554 29.7891 18.3849C29.715 18.6138 29.6774 18.8652 29.6774 19.1311C29.6774 19.706 29.8307 20.1707 30.1333 20.5109C30.4364 20.8523 30.8917 21.0259 31.4854 21.0259C31.8364 21.0259 32.1965 20.9538 32.4552 20.8506C32.4552 20.8506 32.5048 20.8264 32.4831 20.7681L32.315 20.2982Z" fill="white"/>
<path d="M33.5134 18.7489C33.5459 18.5257 33.6068 18.3401 33.7008 18.1953C33.8427 17.9756 34.0593 17.8551 34.3635 17.8551C34.6678 17.8551 34.8689 17.9762 35.0131 18.1953C35.1088 18.3401 35.1504 18.5338 35.1669 18.7489H33.5134ZM35.8194 18.2582C35.7612 18.0362 35.6171 17.8119 35.5225 17.7092C35.3732 17.5466 35.2273 17.433 35.0826 17.3696C34.8934 17.2877 34.6667 17.2335 34.4182 17.2335C34.1288 17.2335 33.8661 17.2825 33.653 17.384C33.4393 17.4855 33.2598 17.6239 33.1191 17.7963C32.9783 17.9681 32.8724 18.1728 32.8051 18.4052C32.7373 18.6364 32.7031 18.8884 32.7031 19.1543C32.7031 19.4247 32.7385 19.6767 32.8085 19.9033C32.8792 20.1317 32.992 20.3329 33.1447 20.4995C33.2969 20.6673 33.4929 20.7988 33.7276 20.8905C33.9607 20.9816 34.2439 21.0289 34.5692 21.0283C35.2387 21.026 35.5914 20.8749 35.7367 20.7936C35.7624 20.7792 35.7869 20.7538 35.7561 20.6812L35.6046 20.2516C35.5818 20.1876 35.5174 20.2112 35.5174 20.2112C35.3516 20.2735 35.1157 20.3854 34.5658 20.3842C34.2063 20.3836 33.9396 20.2764 33.7726 20.1086C33.6011 19.9368 33.5174 19.6842 33.5026 19.3278L35.8211 19.3301C35.8211 19.3301 35.882 19.329 35.8883 19.269C35.8906 19.2436 35.9681 18.787 35.8194 18.2582Z" fill="white"/>
<path d="M14.9454 18.7489C14.9784 18.5257 15.0388 18.3401 15.1329 18.1953C15.2747 17.9756 15.4913 17.8551 15.7955 17.8551C16.0998 17.8551 16.3009 17.9762 16.4457 18.1953C16.5408 18.3401 16.5824 18.5338 16.5989 18.7489H14.9454ZM17.2508 18.2582C17.1927 18.0362 17.0491 17.8119 16.9545 17.7092C16.8052 17.5466 16.6593 17.433 16.5146 17.3696C16.3254 17.2877 16.0987 17.2335 15.8502 17.2335C15.5613 17.2335 15.2981 17.2825 15.085 17.384C14.8713 17.4855 14.6918 17.6239 14.5511 17.7963C14.4103 17.9681 14.3044 18.1728 14.2371 18.4052C14.1699 18.6364 14.1351 18.8884 14.1351 19.1543C14.1351 19.4247 14.1705 19.6767 14.2405 19.9033C14.3112 20.1317 14.424 20.3329 14.5767 20.4995C14.7289 20.6673 14.9249 20.7988 15.1596 20.8905C15.3927 20.9816 15.6759 21.0289 16.0012 21.0283C16.6707 21.026 17.0235 20.8749 17.1688 20.7936C17.1944 20.7792 17.2189 20.7538 17.1881 20.6812L17.0371 20.2516C17.0138 20.1876 16.9494 20.2112 16.9494 20.2112C16.7836 20.2735 16.5482 20.3854 15.9972 20.3842C15.6383 20.3836 15.3716 20.2764 15.2046 20.1086C15.0331 19.9368 14.9494 19.6842 14.9346 19.3278L17.2531 19.3301C17.2531 19.3301 17.314 19.329 17.3203 19.269C17.3226 19.2436 17.4001 18.787 17.2508 18.2582Z" fill="white"/>
<path d="M9.93397 20.2851C9.84337 20.2119 9.83084 20.1934 9.80007 20.1462C9.75448 20.0741 9.73112 19.9714 9.73112 19.8411C9.73112 19.6347 9.79836 19.4865 9.93796 19.3867C9.93625 19.3873 10.1374 19.2109 10.6103 19.2172C10.9425 19.2218 11.2394 19.2714 11.2394 19.2714V20.3382H11.24C11.24 20.3382 10.9454 20.4022 10.6137 20.4224C10.1419 20.4512 9.93226 20.2846 9.93397 20.2851ZM10.8565 18.6365C10.7625 18.6296 10.6405 18.6256 10.4947 18.6256C10.2958 18.6256 10.1038 18.651 9.92371 18.7C9.74252 18.749 9.57955 18.8257 9.43938 18.9272C9.29864 19.0292 9.18525 19.1595 9.1032 19.3141C9.02115 19.4686 8.97955 19.6508 8.97955 19.855C8.97955 20.0626 9.01488 20.243 9.08554 20.3907C9.15619 20.5388 9.25819 20.6622 9.3881 20.7574C9.51688 20.8525 9.67585 20.9223 9.86047 20.9644C10.0422 21.0065 10.2485 21.0278 10.4741 21.0278C10.7117 21.0278 10.9488 21.0082 11.1784 20.9684C11.4058 20.9292 11.685 20.8721 11.7625 20.8543C11.8394 20.8358 11.9249 20.8122 11.9249 20.8122C11.9824 20.7978 11.9778 20.7355 11.9778 20.7355L11.9767 18.5898C11.9767 18.1193 11.8525 17.7704 11.608 17.5542C11.3647 17.3385 11.0063 17.2296 10.5431 17.2296C10.3693 17.2296 10.0895 17.2538 9.922 17.2878C9.922 17.2878 9.41545 17.387 9.2069 17.5519C9.2069 17.5519 9.16132 17.5807 9.18639 17.6453L9.35049 18.0916C9.37101 18.1493 9.42628 18.1297 9.42628 18.1297C9.42628 18.1297 9.44394 18.1228 9.46445 18.1107C9.91061 17.865 10.4747 17.8725 10.4747 17.8725C10.7254 17.8725 10.918 17.9232 11.0479 18.0242C11.1744 18.1222 11.2388 18.2704 11.2388 18.5829V18.6821C11.0394 18.6533 10.8565 18.6365 10.8565 18.6365Z" fill="white"/>
<path d="M29.5563 17.4274C29.5739 17.3743 29.5369 17.349 29.5215 17.3432C29.4822 17.3276 29.285 17.2855 29.1329 17.2757C28.8417 17.2579 28.6799 17.3074 28.5352 17.3732C28.3916 17.4389 28.2321 17.545 28.1432 17.6655V17.3801C28.1432 17.3403 28.1152 17.3086 28.0765 17.3086H27.4822C27.4434 17.3086 27.4155 17.3403 27.4155 17.3801V20.8797C27.4155 20.9189 27.4474 20.9512 27.4862 20.9512H28.0953C28.134 20.9512 28.1654 20.9189 28.1654 20.8797V19.1313C28.1654 18.8966 28.191 18.6625 28.2423 18.5155C28.2925 18.3702 28.3608 18.2537 28.4452 18.1701C28.5301 18.087 28.6264 18.0288 28.7318 17.9959C28.8395 17.9625 28.9586 17.9515 29.0429 17.9515C29.1642 17.9515 29.2976 17.9833 29.2976 17.9833C29.342 17.9884 29.3671 17.9608 29.3819 17.9198C29.4218 17.8126 29.5346 17.4914 29.5563 17.4274Z" fill="white"/>
<path d="M23.8388 15.8055C23.7648 15.7824 23.6975 15.7669 23.6098 15.7501C23.5209 15.734 23.4149 15.7259 23.2947 15.7259C22.8753 15.7259 22.5448 15.8459 22.3129 16.0823C22.0821 16.3176 21.9254 16.6756 21.8468 17.1467L21.8183 17.3053H21.2918C21.2918 17.3053 21.228 17.303 21.2143 17.3734L21.1283 17.8618C21.122 17.9079 21.142 17.9373 21.2035 17.9373H21.7158L21.1961 20.8735C21.1556 21.1099 21.1089 21.3043 21.0571 21.4519C21.0064 21.5972 20.9568 21.7062 20.8952 21.7857C20.836 21.8619 20.7801 21.9184 20.6833 21.9512C20.6035 21.9783 20.5112 21.991 20.4103 21.991C20.3545 21.991 20.2799 21.9818 20.2246 21.9703C20.1699 21.9593 20.1408 21.9472 20.0992 21.9293C20.0992 21.9293 20.0394 21.9063 20.0155 21.9668C19.9967 22.017 19.8599 22.397 19.8434 22.4437C19.8274 22.4904 19.8502 22.5267 19.8793 22.5377C19.9477 22.5619 19.9984 22.578 20.0913 22.6005C20.22 22.6311 20.3289 22.6328 20.4309 22.6328C20.644 22.6328 20.8388 22.6023 21.0001 22.5434C21.1619 22.484 21.3032 22.3808 21.4286 22.2413C21.5636 22.0902 21.6485 21.9322 21.7294 21.716C21.8098 21.5026 21.8787 21.2374 21.9334 20.9283L22.4559 17.9373H23.2195C23.2195 17.9373 23.2838 17.9396 23.2969 17.8687L23.3836 17.3809C23.3893 17.3342 23.3699 17.3053 23.3078 17.3053H22.5665C22.5705 17.2886 22.6041 17.0245 22.689 16.776C22.7254 16.6705 22.7938 16.5845 22.8514 16.5257C22.9083 16.4681 22.9739 16.4271 23.0457 16.4035C23.1192 16.3793 23.2029 16.3677 23.2947 16.3677C23.3642 16.3677 23.4331 16.3758 23.485 16.3867C23.5568 16.4023 23.5847 16.4104 23.6035 16.4162C23.6793 16.4392 23.6895 16.4167 23.7044 16.3798L23.8816 15.8874C23.8998 15.8343 23.8548 15.8118 23.8388 15.8055Z" fill="white"/>
<path d="M13.4805 20.8802C13.4805 20.9195 13.4526 20.9512 13.4139 20.9512H12.7997C12.761 20.9512 12.7337 20.9195 12.7337 20.8802V15.8728C12.7337 15.8336 12.761 15.8019 12.7997 15.8019H13.4139C13.4526 15.8019 13.4805 15.8336 13.4805 15.8728V20.8802Z" fill="white"/>
</g>
<defs>
<clipPath id="clip0">
<rect width="40" height="40" fill="white"/>
</clipPath>
</defs>
</svg>
