<svg width="40" height="40" viewBox="0 0 40 40" fill="none" xmlns="http://www.w3.org/2000/svg">
<g clip-path="url(#clip0)">
<path d="M33.155 7.78811C33.1275 7.58696 32.9523 7.47578 32.8075 7.46357C32.6629 7.45136 29.6036 7.22353 29.6036 7.22353C29.6036 7.22353 27.4789 5.10371 27.2459 4.86914C27.0124 4.63457 26.5568 4.7059 26.38 4.75828C26.3538 4.76599 25.9157 4.90191 25.1909 5.12717C24.481 3.07482 23.2286 1.18861 21.0249 1.18861C20.9642 1.18861 20.9015 1.19118 20.8388 1.19471C20.2122 0.361819 19.4358 0 18.7653 0C13.6322 0 11.1797 6.4488 10.4108 9.72606C8.4162 10.3472 6.9991 10.7887 6.81813 10.8459C5.70478 11.1968 5.66961 11.2321 5.52349 12.2864C5.41318 13.0846 2.5 35.7256 2.5 35.7256L25.2001 40L37.5 37.3259C37.5 37.3259 33.1822 7.98927 33.155 7.78811ZM23.9362 5.51726C23.3661 5.69464 22.718 5.89611 22.0155 6.11462C22.0161 5.9787 22.0168 5.8447 22.0168 5.69849C22.0168 4.42281 21.8406 3.39583 21.5579 2.58158C22.6934 2.72489 23.4495 4.02307 23.9362 5.51726ZM20.1495 2.83447C20.4651 3.62944 20.6703 4.77017 20.6703 6.30967C20.6703 6.38839 20.6697 6.46037 20.6691 6.53331C19.4198 6.92213 18.0625 7.34435 16.702 7.76787C17.4659 4.80519 18.8977 3.3743 20.1495 2.83447ZM18.6243 1.38365C18.8459 1.38365 19.0691 1.45917 19.2827 1.60698C17.6376 2.38492 15.8742 4.3444 15.1295 8.25726C14.0411 8.59594 12.9773 8.92691 11.9938 9.23314C12.8661 6.24861 14.9374 1.38365 18.6243 1.38365Z" fill="#95BF46"/>
<path d="M32.8075 7.46355C32.6629 7.45134 29.6036 7.22352 29.6036 7.22352C29.6036 7.22352 27.4789 5.10369 27.2459 4.86912C27.1586 4.78172 27.0409 4.73705 26.9178 4.71777L25.2014 39.9997L37.5 37.3259C37.5 37.3259 33.1822 7.98925 33.155 7.7881C33.1275 7.58694 32.9523 7.47576 32.8075 7.46355Z" fill="#5E8E3E"/>
<path d="M21.0249 14.2936L19.5084 18.8273C19.5084 18.8273 18.1795 18.1146 16.5507 18.1146C14.1629 18.1146 14.0427 19.6207 14.0427 20.0002C14.0427 22.0708 19.4137 22.8642 19.4137 27.7144C19.4137 31.5302 17.0054 33.9874 13.7581 33.9874C9.86141 33.9874 7.86877 31.5501 7.86877 31.5501L8.91209 28.0858C8.91209 28.0858 10.9604 29.8532 12.6889 29.8532C13.8182 29.8532 14.2777 28.9595 14.2777 28.3066C14.2777 25.6055 9.87132 25.485 9.87132 21.0468C9.87132 17.3113 12.5393 13.6963 17.9247 13.6963C19.9998 13.6963 21.0249 14.2936 21.0249 14.2936Z" fill="white"/>
</g>
<defs>
<clipPath id="clip0">
<rect width="40" height="40" fill="white"/>
</clipPath>
</defs>
</svg>
