<svg width="24" height="21" viewBox="0 0 24 21" fill="none" xmlns="http://www.w3.org/2000/svg">
<path d="M21.5331 5.52437C21.5483 5.73756 21.5483 5.95079 21.5483 6.16398C21.5483 12.6665 16.5991 20.1589 7.55333 20.1589C4.7665 20.1589 2.17768 19.3518 0 17.9508C0.395955 17.9965 0.776628 18.0117 1.18782 18.0117C3.48728 18.0117 5.60407 17.2351 7.29444 15.9102C5.13199 15.8645 3.31979 14.4483 2.69542 12.499C3.00001 12.5447 3.30456 12.5751 3.62439 12.5751C4.066 12.5751 4.50766 12.5142 4.9188 12.4077C2.66499 11.9508 0.974582 9.97109 0.974582 7.58022V7.51933C1.62938 7.88481 2.39087 8.11324 3.19792 8.14366C1.87304 7.26039 1.00505 5.75279 1.00505 4.04719C1.00505 3.1335 1.24866 2.29593 1.67508 1.56496C4.09642 4.54974 7.73605 6.49895 11.8172 6.71218C11.7411 6.3467 11.6954 5.96603 11.6954 5.5853C11.6954 2.87461 13.8883 0.666504 16.6142 0.666504C18.0304 0.666504 19.3096 1.26041 20.2081 2.21981C21.3198 2.00662 22.3858 1.59543 23.33 1.03199C22.9644 2.17415 22.1878 3.13354 21.1675 3.74264C22.1574 3.63609 23.1168 3.36192 24 2.98125C23.3301 3.95583 22.4924 4.82382 21.5331 5.52437Z" fill="#212429"/>
</svg>
