<svg width="40" height="40" viewBox="0 0 40 40" fill="none" xmlns="http://www.w3.org/2000/svg">
<g clip-path="url(#clip0)">
<path d="M2.8428 20.0001C2.8428 26.7915 6.78936 32.6606 12.5122 35.4419L4.32819 13.0174C3.37624 15.1512 2.8428 17.5126 2.8428 20.0001ZM31.5816 19.1343C31.5816 17.0138 30.82 15.5453 30.1667 14.4023C29.2971 12.989 28.4819 11.7921 28.4819 10.3788C28.4819 8.80154 29.678 7.33336 31.3629 7.33336C31.4389 7.33336 31.5111 7.34283 31.5852 7.34707C28.5328 4.55046 24.4661 2.84298 19.9995 2.84298C14.0057 2.84298 8.73244 5.9184 5.66471 10.5766C6.06723 10.5887 6.44658 10.5972 6.76879 10.5972C8.56334 10.5972 11.3412 10.3794 11.3412 10.3794C12.266 10.3249 12.3751 11.6834 11.4512 11.7927C11.4512 11.7927 10.5218 11.9021 9.48754 11.9563L15.7353 30.5411L19.4899 19.2799L16.8169 11.9556C15.893 11.9015 15.0178 11.7921 15.0178 11.7921C14.0932 11.7379 14.2016 10.3242 15.1261 10.3788C15.1261 10.3788 17.9595 10.5965 19.6453 10.5965C21.4395 10.5965 24.2177 10.3788 24.2177 10.3788C25.1432 10.3242 25.2519 11.6827 24.3277 11.7921C24.3277 11.7921 23.3963 11.9015 22.364 11.9556L28.5642 30.3997L30.2754 24.6808C31.0172 22.3076 31.5816 20.6031 31.5816 19.1343ZM20.3005 21.5009L15.1529 36.4598C16.6899 36.9117 18.3153 37.1588 19.9995 37.1588C21.9974 37.1588 23.9134 36.8134 25.6969 36.1862C25.6508 36.1128 25.609 36.0347 25.5748 35.9499L20.3005 21.5009ZM35.0538 11.7682C35.1276 12.3148 35.1694 12.9015 35.1694 13.5325C35.1694 15.2736 34.8442 17.2309 33.8649 19.6782L28.6242 34.831C33.7248 31.8565 37.1556 26.3302 37.1556 20.0004C37.1559 17.0174 36.3939 14.2123 35.0538 11.7682ZM19.9995 0C8.97206 0 0 8.97196 0 20.0001C0 31.0295 8.97206 40.0011 19.9995 40.0011C31.0266 40.0011 40 31.0295 40 20.0001C39.9997 8.97196 31.0266 0 19.9995 0ZM19.9995 39.0844C9.47775 39.0844 0.917022 30.5231 0.917022 20.0001C0.917022 9.47767 9.47742 0.917078 19.9995 0.917078C30.5209 0.917078 39.081 9.47767 39.081 20.0001C39.081 30.5231 30.5209 39.0844 19.9995 39.0844Z" fill="#464342"/>
</g>
<defs>
<clipPath id="clip0">
<rect width="40" height="40" fill="white"/>
</clipPath>
</defs>
</svg>
