<svg width="64" height="64" viewBox="0 0 64 64" fill="none" xmlns="http://www.w3.org/2000/svg">
<circle cx="32" cy="32" r="32" fill="#F1F3F5"/>
<path d="M38.0312 26.5C37.125 20.9187 34.9875 17 32.5 17C30.0125 17 27.875 20.9187 26.9688 26.5H38.0312ZM26.5 32.5C26.5 33.8875 26.575 35.2188 26.7063 36.5H38.2875C38.4188 35.2188 38.4937 33.8875 38.4937 32.5C38.4937 31.1125 38.4188 29.7812 38.2875 28.5H26.7063C26.575 29.7812 26.5 31.1125 26.5 32.5ZM46.7938 26.5C45.0063 22.2562 41.3875 18.975 36.9188 17.65C38.4438 19.7625 39.4938 22.9437 40.0438 26.5H46.7938ZM28.075 17.65C23.6125 18.975 19.9875 22.2562 18.2062 26.5H24.9563C25.5 22.9437 26.55 19.7625 28.075 17.65ZM47.4625 28.5H40.2938C40.425 29.8125 40.5 31.1562 40.5 32.5C40.5 33.8438 40.425 35.1875 40.2938 36.5H47.4562C47.8 35.2188 47.9937 33.8875 47.9937 32.5C47.9937 31.1125 47.8 29.7812 47.4625 28.5ZM24.5 32.5C24.5 31.1562 24.575 29.8125 24.7063 28.5H17.5375C17.2 29.7812 17 31.1125 17 32.5C17 33.8875 17.2 35.2188 17.5375 36.5H24.7C24.575 35.1875 24.5 33.8438 24.5 32.5ZM26.9688 38.5C27.875 44.0812 30.0125 48 32.5 48C34.9875 48 37.125 44.0812 38.0312 38.5H26.9688ZM36.925 47.35C41.3875 46.025 45.0125 42.7437 46.8 38.5H40.05C39.5 42.0562 38.45 45.2375 36.925 47.35ZM18.2062 38.5C19.9938 42.7437 23.6125 46.025 28.0813 47.35C26.5563 45.2375 25.5063 42.0562 24.9563 38.5H18.2062Z" fill="#19C1CE"/>
</svg>
