<svg width="28" height="20" viewBox="0 0 28 20" fill="none" xmlns="http://www.w3.org/2000/svg">
<path d="M26.7761 3.60024C26.4694 2.44546 25.5658 1.53599 24.4185 1.22734C22.3389 0.666504 14 0.666504 14 0.666504C14 0.666504 5.6611 0.666504 3.58147 1.22734C2.43415 1.53603 1.53054 2.44546 1.22385 3.60024C0.666626 5.69335 0.666626 10.0604 0.666626 10.0604C0.666626 10.0604 0.666626 14.4275 1.22385 16.5206C1.53054 17.6754 2.43415 18.547 3.58147 18.8556C5.6611 19.4165 14 19.4165 14 19.4165C14 19.4165 22.3388 19.4165 24.4185 18.8556C25.5658 18.547 26.4694 17.6754 26.7761 16.5206C27.3333 14.4275 27.3333 10.0604 27.3333 10.0604C27.3333 10.0604 27.3333 5.69335 26.7761 3.60024ZM11.2727 14.0254V6.09545L18.2423 10.0605L11.2727 14.0254Z" fill="#212429"/>
</svg>
