<svg width="40" height="40" viewBox="0 0 40 40" fill="none" xmlns="http://www.w3.org/2000/svg">
<g clip-path="url(#clip0)">
<path d="M20.0125 0C21.1424 0.00208083 22.2535 0.0977991 23.3337 0.278831V11.9523L31.5886 3.69764C32.5003 4.34684 33.3533 5.06889 34.1418 5.85754C34.9308 6.64618 35.655 7.50141 36.3042 8.41281L28.0489 16.6674H39.7231C39.9043 17.7474 40 18.8544 40 19.9864V20.0134C40 21.1454 39.9043 22.2545 39.7231 23.3344H28.0469L36.3042 31.587C35.655 32.4984 34.9308 33.3536 34.1442 34.1423H34.1418C33.3533 34.9309 32.5003 35.655 31.591 36.3022L23.3337 28.0475V39.721C22.2555 39.902 21.1443 39.9976 20.0145 40H19.9855C18.8553 39.9976 17.7485 39.902 16.6683 39.721V28.0475L8.4134 36.3022C6.59032 35.0058 4.99647 33.4098 3.6978 31.587L11.9531 23.3344H0.278884C0.0957423 22.2524 0 21.1391 0 20.0072V19.9491C0.00189773 19.6553 0.0210843 19.2965 0.0486425 18.9252L0.057152 18.8135C0.138749 17.7684 0.278884 16.6674 0.278884 16.6674H11.9531L3.6978 8.41281C4.34495 7.50141 5.06719 6.64825 5.85577 5.86172L5.85974 5.85754C6.64674 5.06889 7.50166 4.34684 8.4134 3.69764L16.6683 11.9523V0.278831C17.7485 0.0977991 18.8576 0.00208083 19.9895 0H20.0125ZM20.0105 15.0007H19.9915C18.5057 15.0007 17.0826 15.2733 15.7673 15.7685C15.2743 17.0815 15.0013 18.5048 14.9994 19.9905V20.0092C15.0013 21.495 15.2743 22.9183 15.7693 24.2313C17.0826 24.7265 18.5057 24.9991 19.9915 24.9991H20.0105C21.4963 24.9991 22.9193 24.7265 24.2327 24.2313C24.7277 22.9162 25.0006 21.495 25.0006 20.0092V19.9905C25.0006 18.5048 24.7277 17.0815 24.2327 15.7685C22.9193 15.2733 21.4963 15.0007 20.0105 15.0007Z" fill="#FF4A00"/>
</g>
<defs>
<clipPath id="clip0">
<rect width="40" height="40" fill="white"/>
</clipPath>
</defs>
</svg>
